<svg width="115" height="86" viewBox="0 0 115 86" fill="none" xmlns="http://www.w3.org/2000/svg">
<path d="M8.57715 76.1445V65.8913H10.3595L14.0724 72.7381V65.8913H15.7737V76.1445H13.9357L10.2785 69.4584V76.1445H8.57715Z" fill="#1D1D1B"/>
<path d="M25.892 76.1445H23.8995L23.1071 73.8149H19.4803L18.7322 76.1445H16.789L20.3234 65.8913H22.2602L25.892 76.1445ZM22.5197 72.089L21.269 68.2841L20.0436 72.089H22.5197Z" fill="#1D1D1B"/>
<path d="M27.9655 76.1445V67.6261H25.2729V65.8913H32.4822V67.6261H29.7972V76.1445H27.9655Z" fill="#1D1D1B"/>
<path d="M33.6532 65.8913H35.485V71.445C35.485 72.3256 35.5077 72.8963 35.5533 73.1582C35.6318 73.5783 35.8179 73.9149 36.1128 74.1692C36.4078 74.4236 36.8116 74.5501 37.323 74.5501C37.8344 74.5501 38.2345 74.4299 38.499 74.1895C38.7636 73.9491 38.9218 73.6543 38.975 73.305C39.0282 72.9558 39.0548 72.3762 39.0548 71.5639V65.8913H40.8865V71.2767C40.8865 72.5066 40.8371 73.3771 40.7384 73.8845C40.6397 74.3932 40.4574 74.8222 40.1915 75.1714C39.9244 75.5206 39.57 75.8003 39.1244 76.0078C38.6788 76.2153 38.0965 76.3191 37.3787 76.3191C36.5129 76.3191 35.8559 76.2065 35.4077 75.98C34.9596 75.7547 34.6064 75.4599 34.3457 75.0993C34.0861 74.7374 33.9152 74.359 33.8317 73.963C33.7127 73.3759 33.6532 72.5078 33.6532 71.3614V65.8913Z" fill="#1D1D1B"/>
<path d="M81.233 65.804H83.0647V71.3576C83.0647 72.2383 83.0875 72.809 83.1331 73.0709C83.2115 73.491 83.3976 73.8276 83.6926 74.0819C83.9875 74.3363 84.3914 74.4628 84.9028 74.4628C85.4142 74.4628 85.8142 74.3426 86.0788 74.1022C86.3434 73.8617 86.5016 73.5669 86.5548 73.2177C86.6079 72.8685 86.6345 72.2889 86.6345 71.4766V65.804H88.4663V71.1893C88.4663 72.4193 88.4169 73.2898 88.3181 73.7972C88.2194 74.3059 88.0371 74.7348 87.7713 75.0841C87.5042 75.4333 87.1497 75.713 86.7041 75.9205C86.2585 76.128 85.6762 76.2318 84.9585 76.2318C84.0926 76.2318 83.4356 76.1191 82.9875 75.8926C82.5394 75.6674 82.1862 75.3726 81.9254 75.012C81.6659 74.6501 81.495 74.2717 81.4114 73.8757C81.2924 73.2885 81.233 72.4205 81.233 71.2741V65.804Z" fill="#1D1D1B"/>
<path d="M42.8245 76.1445V65.8913H46.6791C47.6488 65.8913 48.3539 65.9837 48.7932 66.1684C49.2324 66.3519 49.5844 66.6796 49.8477 67.1504C50.1122 67.6223 50.2439 68.1601 50.2439 68.7662C50.2439 69.5355 50.0439 70.172 49.6439 70.6731C49.2438 71.1742 48.6451 71.4892 47.8488 71.6208C48.2451 71.8828 48.5717 72.1687 48.8299 72.4813C49.0881 72.7938 49.435 73.348 49.873 74.1452L50.9806 76.1457H48.7907L47.4665 73.9149C46.9956 73.1177 46.6741 72.6154 46.5007 72.4066C46.3272 72.1991 46.1437 72.0574 45.95 71.9802C45.7563 71.903 45.4487 71.8638 45.0284 71.8638H44.6575V76.1445H42.8245ZM44.6563 70.2277H46.0108C46.8893 70.2277 47.4387 70.1859 47.6577 70.1012C47.8767 70.0164 48.0476 69.8721 48.1716 69.6684C48.2957 69.4634 48.3577 69.2066 48.3577 68.8991C48.3577 68.5549 48.2767 68.2753 48.1134 68.0627C47.9501 67.8501 47.721 67.716 47.4235 67.6603C47.2754 67.6375 46.8285 67.6261 46.0867 67.6261H44.6575V70.2277H44.6563Z" fill="#1D1D1B"/>
<path d="M60.1521 76.1445H58.1596L57.3671 73.8149H53.7403L52.9922 76.1445H51.0491L54.5834 65.8913H56.5202L60.1521 76.1445ZM56.7785 72.089L55.5278 68.2841L54.3024 72.089H56.7785Z" fill="#1D1D1B"/>
<path d="M61.1724 76.1445V65.9762H63.0042V74.4173H67.5588V76.1445H61.1724Z" fill="#1D1D1B"/>
<path d="M77.9618 72.3749L79.7379 73.0101C79.4657 74.13 79.0125 74.9601 78.3795 75.5042C77.7466 76.047 76.9428 76.319 75.9693 76.319C74.7642 76.319 73.7742 75.8547 72.9995 74.9246C72.2235 73.9946 71.8362 72.7229 71.8362 71.1096C71.8362 69.4026 72.2261 68.0778 73.0058 67.1326C73.7856 66.1887 74.811 65.7167 76.082 65.7167C77.1921 65.7167 78.0935 66.0874 78.7859 66.8289C79.1986 67.2667 79.5087 67.8969 79.7138 68.7168L77.901 69.2065C77.7934 68.6751 77.5694 68.255 77.2301 67.9462C76.8896 67.6388 76.4769 67.4844 75.9896 67.4844C75.3161 67.4844 74.7718 67.7577 74.3528 68.3031C73.9337 68.8497 73.7249 69.7329 73.7249 70.954C73.7249 72.2509 73.9312 73.1734 74.3439 73.7238C74.7566 74.2742 75.2933 74.5488 75.9528 74.5488C76.4389 74.5488 76.8579 74.3742 77.2086 74.0237C77.5592 73.6745 77.8112 73.124 77.9631 72.3737L77.9618 72.3749Z" fill="#1D1D1B"/>
<path d="M89.9625 76.1445V65.8913H93.8172C94.7868 65.8913 95.492 65.9837 95.9312 66.1684C96.3705 66.3519 96.7224 66.6796 96.9857 67.1504C97.2503 67.6223 97.3819 68.1601 97.3819 68.7662C97.3819 69.5355 97.1819 70.172 96.7819 70.6731C96.3819 71.1742 95.7831 71.4892 94.9869 71.6208C95.3831 71.8828 95.7097 72.1687 95.9679 72.4813C96.2262 72.7938 96.573 73.348 97.011 74.1452L98.1187 76.1457H95.9287L94.6046 73.9149C94.1337 73.1177 93.8121 72.6154 93.6387 72.4066C93.4653 72.1991 93.2817 72.0574 93.088 71.9802C92.8943 71.903 92.5867 71.8638 92.1665 71.8638H91.7955V76.1445H89.9625ZM91.7955 70.2277H93.1501C94.0286 70.2277 94.578 70.1859 94.797 70.1012C95.016 70.0164 95.1869 69.8721 95.3109 69.6684C95.435 69.4634 95.497 69.2066 95.497 68.8991C95.497 68.5549 95.416 68.2753 95.2527 68.0627C95.0894 67.8501 94.8603 67.716 94.5628 67.6603C94.4147 67.6375 93.9678 67.6261 93.226 67.6261H91.7968V70.2277H91.7955Z" fill="#1D1D1B"/>
<path d="M99.615 76.1445V65.8913H106.342V67.6261H101.447V69.9H106.001V71.6272H101.447V74.4173H106.515V76.1445H99.615Z" fill="#1D1D1B"/>
<path d="M76.663 26.0644C66.8181 29.6833 59.0874 41.985 58.3304 55.027C55.1226 52.1825 53.5263 48.6547 52.7908 44.6967C51.5351 37.9397 53.8314 32.1014 57.7088 26.7527C61.4774 21.5547 66.5397 18.0029 72.3425 15.3456C79.7821 11.9393 92.5043 9.19603 99.2452 9.75278C97.9958 11.666 96.3818 13.402 95.6159 15.4544C93.6272 20.7879 91.7397 26.1909 90.3232 31.6977C88.8611 37.3829 87.5395 43.0783 84.5115 48.1738C81.0885 53.935 76.5212 58.1321 69.3993 58.5788C62.5913 59.0052 61.1811 57.6766 62.0609 51.0183C63.3028 41.6193 67.8524 33.9425 74.8515 27.6473C75.4477 27.1108 76.0579 26.592 76.663 26.0657V26.0644Z" fill="#097B35"/>
<path d="M15.8472 33.7286C25.9097 31.7002 35.8799 30.6272 44.9133 37.3589C50.1806 41.284 52.2542 47.555 50.2047 53.0176C50.0237 53.5009 49.7464 53.9488 49.3667 54.7081C46.7982 46.4086 40.8801 42.2001 33.0785 40.0983C33.343 40.2919 33.5962 40.5058 33.876 40.6753C34.1621 40.8487 34.4798 40.9702 34.776 41.1283C40.5396 44.2082 44.6297 48.704 46.7083 54.9801C47.1893 56.434 46.8007 57.1742 45.5222 57.8778C41.5738 60.0504 37.1863 59.6758 33.262 56.6238C29.9568 54.0526 27.7136 50.6336 25.7072 47.0211C24.3704 44.6144 23.0906 42.1444 21.4601 39.944C19.8436 37.7612 17.8194 35.8809 15.8472 33.7286Z" fill="#097B35"/>
</svg>
