<svg width="142" height="96" viewBox="0 0 142 96" fill="none" xmlns="http://www.w3.org/2000/svg">
<g clip-path="url(#clip0_344_2822)">
<path d="M0.454102 95.7484V80.9777H3.02181L8.3706 90.8412V80.9777H10.8216V95.7484H8.17364L2.9051 86.1164V95.7484H0.454102Z" fill="#1D1D1B"/>
<path d="M25.3971 95.7484H22.5267L21.3851 92.3925H16.1603L15.0825 95.7484H12.2832L17.3749 80.9777H20.1651L25.3971 95.7484ZM20.5389 89.9061L18.7371 84.4247L16.9718 89.9061H20.5371H20.5389Z" fill="#1D1D1B"/>
<path d="M28.3838 95.7484V83.4768H24.5049V80.9777H34.8906V83.4768H31.0226V95.7484H28.3838Z" fill="#1D1D1B"/>
<path d="M36.5791 80.9777H39.2179V88.9783C39.2179 90.247 39.2508 91.0691 39.3164 91.4464C39.4295 92.0516 39.6976 92.5365 40.1225 92.9029C40.5474 93.2693 41.1291 93.4516 41.8659 93.4516C42.6026 93.4516 43.1789 93.2784 43.5601 92.9321C43.9412 92.5857 44.1692 92.161 44.2458 91.6579C44.3224 91.1548 44.3606 90.3199 44.3606 89.1496V80.9777H46.9995V88.7358C46.9995 90.5077 46.9284 91.7618 46.7861 92.4928C46.6439 93.2256 46.3813 93.8435 45.9983 94.3466C45.6135 94.8498 45.1029 95.2526 44.4609 95.5516C43.819 95.8505 42.9801 96 41.9461 96C40.6987 96 39.7523 95.8378 39.1067 95.5115C38.4611 95.187 37.9523 94.7623 37.5766 94.2427C37.2028 93.7214 36.9566 93.1763 36.8362 92.6058C36.6648 91.76 36.5791 90.5095 36.5791 88.858V80.9795V80.9777Z" fill="#1D1D1B"/>
<path d="M105.122 80.8519H107.761V88.8525C107.761 90.1213 107.794 90.9434 107.859 91.3207C107.972 91.9259 108.241 92.4108 108.665 92.7772C109.09 93.1436 109.672 93.3259 110.409 93.3259C111.146 93.3259 111.722 93.1527 112.103 92.8064C112.484 92.46 112.712 92.0353 112.789 91.5322C112.865 91.029 112.904 90.1942 112.904 89.0239V80.8519H115.542V88.6101C115.542 90.3819 115.471 91.6361 115.329 92.367C115.187 93.0998 114.924 93.7178 114.541 94.2209C114.156 94.724 113.646 95.1269 113.004 95.4258C112.362 95.7248 111.523 95.8743 110.489 95.8743C109.242 95.8743 108.295 95.712 107.65 95.3857C107.004 95.0613 106.495 94.6365 106.12 94.117C105.746 93.5957 105.5 93.0506 105.379 92.4801C105.208 91.6342 105.122 90.3837 105.122 88.7322V80.8537V80.8519Z" fill="#1D1D1B"/>
<path d="M49.792 95.7484V80.9777H55.345C56.7419 80.9777 57.7577 81.1107 58.3905 81.3769C59.0233 81.6412 59.5303 82.1133 59.9096 82.7914C60.2908 83.4714 60.4804 84.2461 60.4804 85.1192C60.4804 86.2275 60.1923 87.1445 59.616 87.8663C59.0398 88.5882 58.1772 89.0421 57.0301 89.2316C57.6009 89.609 58.0714 90.021 58.4434 90.4712C58.8154 90.9215 59.3151 91.7199 59.9461 92.8683L61.5418 95.7503H58.3869L56.4793 92.5365C55.8009 91.3881 55.3377 90.6644 55.0879 90.3637C54.838 90.0647 54.5736 89.8605 54.2946 89.7493C54.0156 89.6381 53.5724 89.5816 52.967 89.5816H52.4326V95.7484H49.7938H49.792ZM52.4308 87.2247H54.3821C55.6478 87.2247 56.4392 87.1645 56.7547 87.0424C57.0702 86.9202 57.3164 86.7124 57.4951 86.4189C57.6738 86.1236 57.7632 85.7536 57.7632 85.3106C57.7632 84.8148 57.6465 84.412 57.4112 84.1057C57.176 83.7995 56.8459 83.6062 56.4173 83.526C56.204 83.4932 55.5602 83.4768 54.4916 83.4768H52.4326V87.2247H52.4308Z" fill="#1D1D1B"/>
<path d="M74.7526 95.7484H71.8822L70.7405 92.3925H65.5158L64.438 95.7484H61.6387L66.7303 80.9777H69.5205L74.7526 95.7484ZM69.8925 89.9061L68.0908 84.4247L66.3255 89.9061H69.8907H69.8925Z" fill="#1D1D1B"/>
<path d="M76.2236 95.7484V81.0997H78.8625V93.2601H85.424V95.7484H76.2236Z" fill="#1D1D1B"/>
<path d="M100.41 90.3181L102.968 91.2331C102.576 92.8464 101.923 94.0422 101.011 94.826C100.1 95.608 98.9416 96 97.5392 96C95.8031 96 94.377 95.331 93.2609 93.9911C92.143 92.6513 91.585 90.8193 91.585 88.4952C91.585 86.0361 92.1466 84.1276 93.27 82.7659C94.3934 81.406 95.8706 80.7261 97.7015 80.7261C99.3009 80.7261 100.599 81.2602 101.597 82.3284C102.191 82.9591 102.638 83.8669 102.934 85.0481L100.322 85.7536C100.167 84.988 99.8443 84.3828 99.3556 83.938C98.865 83.495 98.2705 83.2726 97.5684 83.2726C96.5982 83.2726 95.814 83.6664 95.2104 84.452C94.6068 85.2395 94.3059 86.5119 94.3059 88.271C94.3059 90.1394 94.6031 91.4683 95.1976 92.2612C95.7921 93.0542 96.5654 93.4498 97.5155 93.4498C98.2158 93.4498 98.8194 93.1982 99.3246 92.6933C99.8297 92.1901 100.193 91.3972 100.411 90.3162L100.41 90.3181Z" fill="#1D1D1B"/>
<path d="M117.698 95.7484V80.9777H123.251C124.648 80.9777 125.664 81.1107 126.297 81.3769C126.93 81.6412 127.437 82.1133 127.816 82.7914C128.197 83.4714 128.387 84.2461 128.387 85.1192C128.387 86.2275 128.099 87.1445 127.522 87.8663C126.946 88.5882 126.083 89.0421 124.936 89.2316C125.507 89.609 125.978 90.021 126.35 90.4712C126.722 90.9215 127.221 91.7199 127.852 92.8683L129.448 95.7503H126.293L124.386 92.5365C123.707 91.3881 123.244 90.6644 122.994 90.3637C122.744 90.0647 122.48 89.8605 122.201 89.7493C121.922 89.6381 121.479 89.5816 120.873 89.5816H120.339V95.7484H117.7H117.698ZM120.339 87.2247H122.29C123.556 87.2247 124.347 87.1645 124.663 87.0424C124.978 86.9202 125.224 86.7124 125.403 86.4189C125.582 86.1236 125.671 85.7536 125.671 85.3106C125.671 84.8148 125.555 84.412 125.319 84.1057C125.084 83.7995 124.754 83.6062 124.325 83.526C124.112 83.4932 123.468 83.4768 122.4 83.4768H120.341V87.2247H120.339Z" fill="#1D1D1B"/>
<path d="M131.604 95.7484V80.9777H141.295V83.4768H134.243V86.7525H140.805V89.2408H134.243V93.2602H141.545V95.7484H131.604Z" fill="#1D1D1B"/>
<path d="M98.5405 23.6026C84.3579 28.816 73.2208 46.538 72.1303 65.3264C67.5091 61.2286 65.2095 56.1464 64.15 50.4445C62.3409 40.7103 65.649 32.2996 71.2349 24.5942C76.6639 17.1059 83.9567 11.9891 92.3163 8.16101C103.034 3.25382 121.362 -0.698174 131.073 0.103892C129.273 2.86008 126.948 5.36107 125.844 8.31778C122.979 16.0012 120.26 23.7849 118.22 31.7181C116.113 39.9082 114.209 48.113 109.847 55.4537C104.916 63.7533 98.3362 69.7998 88.0763 70.4433C78.2687 71.0576 76.2372 69.1436 77.5046 59.5516C79.2936 46.0112 85.8478 34.9518 95.9308 25.883C96.7898 25.1101 97.6688 24.3627 98.5405 23.6044V23.6026Z" fill="#097B35"/>
<path d="M10.9287 34.6438C25.425 31.7217 39.7881 30.1759 52.8017 39.8736C60.3899 45.5282 63.3771 54.5624 60.4246 62.4317C60.1638 63.1281 59.7644 63.7734 59.2173 64.8671C55.5171 52.9109 46.9915 46.848 35.7523 43.8202C36.1335 44.0991 36.4982 44.4071 36.9012 44.6514C37.3134 44.9011 37.7711 45.0761 38.1979 45.304C46.501 49.7409 52.3932 56.2175 55.3877 65.259C56.0806 67.3535 55.5208 68.4199 53.6789 69.4334C47.9909 72.5633 41.6701 72.0237 36.0168 67.6269C31.2552 63.9228 28.0237 58.9974 25.1332 53.7931C23.2074 50.326 21.3637 46.7678 19.0148 43.5978C16.686 40.4533 13.77 37.7445 10.9287 34.6438Z" fill="#097B35"/>
</g>
<defs>
<clipPath id="clip0_344_2822">
<rect width="141.091" height="96" fill="white" transform="translate(0.454102)"/>
</clipPath>
</defs>
</svg>
