<svg width="51" height="50" viewBox="0 0 51 50" fill="none" xmlns="http://www.w3.org/2000/svg">
<path d="M40.7614 16.0744C40.4663 15.6034 40.0056 15.2755 39.464 15.151L36.6113 14.4955L37.9285 14.1268C39.0198 13.8214 39.6773 12.6558 39.3714 11.5625C39.0659 10.4711 37.9004 9.81378 36.8069 10.1196L30.6654 11.8384C30.5056 11.5475 30.2782 11.2985 30.0043 11.1132C31.2507 8.79372 33.0464 4.85753 33.0464 3.16414C33.0464 2.75114 32.656 2.43157 32.2509 2.51322C29.8136 3.00558 27.5412 3.23278 25.3065 3.20843C23.0096 3.18321 20.151 2.89792 18.3548 2.51471C17.7995 2.39624 17.3539 3.01762 17.6468 3.50577C18.0845 4.23526 18.3526 5.00659 18.5 5.78399C16.2457 5.85307 13.9079 5.5799 12.1385 4.69511C11.6619 4.45675 11.0993 4.87379 11.1865 5.39823C11.743 8.73694 12.8657 10.6944 13.9913 12.1734H13.9663C12.8191 12.1734 11.8857 13.1068 11.8857 14.254C11.8857 15.3092 12.6754 16.1827 13.6946 16.3164C12.9516 17.5607 11.8906 18.7414 10.7758 19.9803C8.40515 22.6149 5.71806 25.6011 4.81402 30.4227C4.38142 32.7297 4.39583 34.8884 4.857 36.8389C5.28748 38.6598 6.10742 40.308 7.29386 41.7377C8.86877 43.6354 11.0326 45.1078 13.725 46.1144C16.1503 47.0209 18.928 47.5001 21.7577 47.5001C24.5874 47.5001 27.3651 47.0209 29.7904 46.1144C32.4828 45.1078 34.6466 43.6353 36.2215 41.7377C37.408 40.308 38.2279 38.6599 38.6584 36.8389C39.1195 34.8884 39.134 32.7296 38.7014 30.4227C37.7973 25.6012 35.1103 22.615 32.7396 19.9804C31.9348 19.0859 31.1691 18.2331 30.5272 17.3676L38.5322 19.2068C39.3802 19.4016 40.2839 19.0306 40.7524 18.2978C41.1811 17.6268 41.1837 16.7484 40.7614 16.0744ZM25.292 4.53638C27.3366 4.5587 29.4059 4.37993 31.5916 3.9904C31.1908 5.62895 29.9039 8.54323 28.6831 10.7633C27.8372 10.827 27.1311 11.3985 26.8693 12.1733H25.0257C24.9841 12.0836 24.9379 11.9852 24.8865 11.876C24.3165 10.6641 23.1301 8.14254 23.1301 5.9973C23.1301 5.58491 22.7407 5.26517 22.3358 5.3462C21.5631 5.5008 20.7129 5.62587 19.8283 5.70427C19.7356 5.15021 19.5917 4.59526 19.3825 4.04946C21.1667 4.32561 23.4142 4.51572 25.292 4.53638ZM29.5933 12.8372V15.6705C29.5933 16.0854 29.2557 16.4231 28.8407 16.4231C28.4257 16.4231 28.0881 16.0855 28.0881 15.6705V12.8372C28.0881 12.4222 28.4257 12.0846 28.8407 12.0846C29.2557 12.0846 29.5933 12.4223 29.5933 12.8372ZM12.7344 6.37655C14.3945 6.94318 16.4366 7.19446 18.6421 7.11694L19.9581 7.03379C20.5789 6.97684 21.2087 6.89484 21.8432 6.78752C22.0503 8.84188 22.9888 10.9528 23.559 12.1733H19.1375H17.7406H15.686C15.6712 12.15 15.6552 12.1272 15.6372 12.1054C14.5265 10.7692 13.3995 9.22359 12.7344 6.37655ZM31.7524 20.8685C34.0063 23.3732 36.5607 26.2121 37.3962 30.6672C38.165 34.7675 37.4259 38.2066 35.1995 40.8892C32.4544 44.1969 27.4294 46.1718 21.7578 46.1718C16.0862 46.1718 11.0611 44.197 8.31594 40.8892C6.08958 38.2067 5.35059 34.7676 6.11928 30.6673C6.95469 26.2121 9.50923 23.3731 11.7631 20.8685C13.1107 19.3708 14.3839 17.9541 15.1999 16.3346H16.8217C17.1885 16.3346 17.4857 16.0372 17.4857 15.6706C17.4857 15.3038 17.1884 15.0065 16.8217 15.0065H13.9663C13.5512 15.0065 13.2137 14.669 13.2137 14.2539C13.2137 13.8389 13.5512 13.5013 13.9663 13.5013H26.76V15.0065H19.9868C19.6199 15.0065 19.3228 15.3038 19.3228 15.6705C19.3228 16.0372 19.62 16.3345 19.9868 16.3345H26.8692C27.1471 17.157 27.9255 17.7511 28.8406 17.7511C28.9464 17.7511 29.0501 17.743 29.1517 17.7278C29.8928 18.7998 30.7961 19.8059 31.7524 20.8685ZM30.9215 13.1459L37.1648 11.3985C37.5601 11.2877 37.982 11.5259 38.0924 11.9204C38.2029 12.3159 37.9652 12.7376 37.5705 12.8479L34.0025 13.8466C33.9734 13.8547 33.9456 13.8653 33.9186 13.877L30.9215 13.1883V13.1459ZM39.7315 17.3473C39.6385 17.7517 39.2346 18.0053 38.8295 17.9122L30.8797 16.0857C30.9069 15.9515 30.9214 15.8126 30.9214 15.6704V14.5508L39.1665 16.4452C39.5661 16.5371 39.8234 16.9473 39.7315 17.3473Z" fill="black"/>
<path d="M31.3799 11.4858H31.4383C31.4383 11.4858 31.3929 11.3716 31.3799 11.4858Z" fill="black"/>
<path d="M17.2725 11.4858H17.3309C17.3179 11.3716 17.2725 11.4858 17.2725 11.4858Z" fill="black"/>
<path d="M29.0776 30.3249C30.1353 30.3249 30.9959 29.4644 30.9959 28.4066V27.2261C30.9959 24.4655 28.9369 22.1771 26.2738 21.8159V20.5365C26.2738 19.4788 25.4133 18.6182 24.3555 18.6182C23.2978 18.6182 22.4371 19.4787 22.4371 20.5365V21.9136C19.703 22.5234 17.715 24.954 17.715 27.8163C17.715 31.1524 20.4291 33.8664 23.7651 33.8664H24.9456C26.166 33.8664 27.1591 34.8593 27.1591 36.0799C27.1591 37.3005 26.1661 38.2934 24.9456 38.2934H23.1748C22.2797 38.2934 21.5516 37.5652 21.5516 36.6702C21.5516 35.6124 20.691 34.7518 19.6332 34.7518C18.5755 34.7518 17.7148 35.6123 17.7148 36.6702C17.7148 39.4307 19.7738 41.7192 22.4369 42.0803V43.3597C22.4369 44.4174 23.2975 45.2781 24.3553 45.2781C25.413 45.2781 26.2737 44.4175 26.2737 43.3597V41.9827C29.0077 41.3728 30.9957 38.9422 30.9957 36.0799C30.9957 32.7439 28.2817 30.0298 24.9456 30.0298H23.7651C22.5447 30.0298 21.5517 29.0369 21.5517 27.8163C21.5517 26.5957 22.5446 25.6028 23.7651 25.6028H25.536C26.4311 25.6028 27.1592 26.3311 27.1592 27.2261V28.4066C27.1592 29.4643 28.0198 30.3249 29.0776 30.3249ZM25.5361 24.1273H23.7652C21.7311 24.1273 20.0762 25.7821 20.0762 27.8163C20.0762 29.8505 21.7311 31.5054 23.7652 31.5054H24.9457C27.4682 31.5054 29.5202 33.5575 29.5202 36.0799C29.5202 38.4138 27.7723 40.3678 25.4546 40.6253C25.081 40.6668 24.7983 40.9827 24.7983 41.3586V43.3597C24.7983 43.6038 24.5996 43.8024 24.3556 43.8024C24.1115 43.8024 23.9129 43.6038 23.9129 43.3597V41.3922C23.9129 40.9847 23.5826 40.6544 23.1751 40.6544C20.9781 40.6544 19.1909 38.8671 19.1909 36.6702C19.1909 36.4262 19.3896 36.2276 19.6336 36.2276C19.8776 36.2276 20.0763 36.4262 20.0763 36.6702C20.0763 38.3789 21.4664 39.7691 23.1751 39.7691H24.9459C26.9801 39.7691 28.635 38.1142 28.635 36.08C28.635 34.0458 26.9801 32.3909 24.9459 32.3909H23.7654C21.243 32.3909 19.1909 30.3388 19.1909 27.8164C19.1909 25.4825 20.9389 23.5285 23.2566 23.271C23.6302 23.2295 23.9129 22.9137 23.9129 22.5377V20.5366C23.9129 20.2926 24.1115 20.0939 24.3556 20.0939C24.5996 20.0939 24.7983 20.2926 24.7983 20.5366V22.5041C24.7983 22.9116 25.1285 23.2419 25.5361 23.2419C27.733 23.2419 29.5202 25.0292 29.5202 27.2261V28.4066C29.5202 28.6506 29.3216 28.8492 29.0776 28.8492C28.8335 28.8492 28.6349 28.6506 28.6349 28.4066V27.2261C28.6349 25.5174 27.2447 24.1273 25.5361 24.1273Z" fill="black"/>
</svg>
