<svg width="21" height="21" viewBox="0 0 21 21" fill="none" xmlns="http://www.w3.org/2000/svg">
<path d="M4.875 6.75L6.75 4.25H14.25L16.125 6.75M4.875 6.75V15.5C4.875 15.8315 5.0067 16.1495 5.24112 16.3839C5.47554 16.6183 5.79348 16.75 6.125 16.75H14.875C15.2065 16.75 15.5245 16.6183 15.7589 16.3839C15.9933 16.1495 16.125 15.8315 16.125 15.5V6.75M4.875 6.75H16.125M13 9.25C13 9.91304 12.7366 10.5489 12.2678 11.0178C11.7989 11.4866 11.163 11.75 10.5 11.75C9.83696 11.75 9.20107 11.4866 8.73223 11.0178C8.26339 10.5489 8 9.91304 8 9.25" stroke="#1D1D1B" stroke-linecap="round" stroke-linejoin="round"/>
</svg>
