<svg width="20" height="20" viewBox="0 0 20 20" fill="none" xmlns="http://www.w3.org/2000/svg">
<path d="M18.9535 4.94719C18.8724 4.53846 18.6912 4.16443 18.4381 3.85544C18.3847 3.78812 18.329 3.72783 18.2685 3.66753C17.8201 3.2169 17.1907 2.93579 16.5032 2.93579H3.49683C2.80928 2.93579 2.18217 3.2169 1.73164 3.66753C1.67134 3.72783 1.61559 3.78812 1.56208 3.85544C1.30885 4.1644 1.12762 4.53846 1.04873 4.94719C1.01631 5.10493 1 5.26795 1 5.43277V14.5675C1 14.918 1.07432 15.2548 1.20686 15.559C1.3298 15.8494 1.51107 16.1122 1.7316 16.3325C1.7875 16.3883 1.84301 16.4395 1.90359 16.4905C2.33552 16.8482 2.89306 17.0643 3.49683 17.0643H16.5032C17.1072 17.0643 17.6671 16.8482 18.0966 16.4883C18.157 16.4395 18.2128 16.3883 18.2685 16.3325C18.4889 16.1122 18.6702 15.8494 18.7957 15.559V15.5568C18.9282 15.2526 19 14.918 19 14.5676V5.43277C19 5.26795 18.9839 5.10493 18.9535 4.94719ZM2.63508 4.57087C2.85815 4.34805 3.15772 4.21316 3.49683 4.21316H16.5032C16.8423 4.21316 17.1445 4.34805 17.3649 4.57087C17.4044 4.61057 17.4415 4.65479 17.4743 4.69874L10.6573 10.64C10.4693 10.8048 10.237 10.8861 10 10.8861C9.76537 10.8861 9.53327 10.8048 9.34276 10.64L2.52831 4.69621C2.55848 4.65226 2.59564 4.61057 2.63508 4.57087ZM2.27737 14.5675V6.01805L7.21064 10.3217L2.27986 14.6208C2.27737 14.6045 2.27737 14.5861 2.27737 14.5675ZM16.5032 15.7866H3.49683C3.27602 15.7866 3.0694 15.7286 2.89306 15.6266L8.09542 11.0929L8.5811 11.5154C8.98754 11.8686 9.49615 12.0475 10 12.0475C10.5065 12.0475 11.015 11.8686 11.4214 11.5154L11.9069 11.0929L17.1072 15.6266C16.9306 15.7286 16.724 15.7866 16.5032 15.7866ZM17.7226 14.5675C17.7226 14.5861 17.7226 14.6045 17.7203 14.6208L12.7895 10.3242L17.7226 6.02033V14.5675Z" fill="#097B35"/>
</svg>
