<svg width="50" height="50" viewBox="0 0 50 50" fill="none" xmlns="http://www.w3.org/2000/svg">
<path d="M47.2722 20.8465C46.9743 20.1428 46.4202 19.5974 45.712 19.3105L44.921 18.99V14.8108C44.921 13.2334 43.6378 11.9502 42.0604 11.9502H27.543L19.2168 8.5772C18.8786 8.44009 18.4937 8.6033 18.3568 8.94133C18.2197 9.27936 18.3828 9.66449 18.7209 9.80143L24.025 11.9502H10.2183L11.5865 8.57263C11.9053 7.78574 12.8049 7.40482 13.5917 7.7236L16.2729 8.80976C16.6112 8.94695 16.9961 8.78365 17.133 8.44562C17.27 8.1076 17.1069 7.72255 16.7688 7.58553L14.0876 6.49937C12.6259 5.90717 10.9545 6.61469 10.3622 8.07657L8.79311 11.9501H7.9396C6.36232 11.9501 5.07912 13.2333 5.07912 14.8107V21.1183L2.7109 26.9645C2.42394 27.6727 2.43 28.4502 2.72795 29.1539C3.02581 29.8575 3.57988 30.403 4.2881 30.6899L5.0792 31.0103V35.1896C5.0792 36.767 6.36241 38.0502 7.93969 38.0502H10.7581C11.1228 38.0502 11.4185 37.7545 11.4185 37.3898C11.4185 37.025 11.1228 36.7294 10.7581 36.7294H7.93969C7.09076 36.7294 6.40002 36.0387 6.40002 35.1897V23.386H15.0792C13.5545 24.5905 11.5203 26.6742 10.6625 29.6767C10.5675 30.0093 10.7542 30.3682 11.0809 30.4818C11.4346 30.6049 11.83 30.3991 11.9327 30.0395C12.8236 26.9208 15.232 24.8664 16.5894 23.9183V36.7293H13.3999C13.0352 36.7293 12.7395 37.0249 12.7395 37.3897C12.7395 37.7544 13.0352 38.0501 13.3999 38.0501H22.4572L29.0196 40.7085C29.1009 40.7415 29.1847 40.757 29.2673 40.757C29.5284 40.757 29.7756 40.6012 29.8797 40.3444C30.0167 40.0064 29.8536 39.6212 29.5155 39.4843L25.9752 38.0501H39.7818L38.4136 41.4276C38.0948 42.2145 37.1949 42.5954 36.4084 42.2767L31.9699 40.4786C31.6316 40.3416 31.2467 40.5047 31.1098 40.8427C30.9727 41.1807 31.1358 41.5659 31.4739 41.7028L35.9126 43.5009C36.2632 43.643 36.6259 43.7102 36.983 43.7102C38.114 43.7102 39.1877 43.0348 39.6379 41.9237L41.207 38.0502H42.0605C43.6379 38.0502 44.9211 36.767 44.9211 35.1896V28.882L47.2893 23.0358C47.5761 22.3276 47.57 21.5501 47.2722 20.8465ZM4.78407 29.4656C4.40288 29.3112 4.10467 29.0176 3.94427 28.6389C3.78396 28.2602 3.78071 27.8418 3.93513 27.4606L5.07912 24.6366V29.5853L4.78407 29.4656ZM10.7133 19.6095C10.6001 19.3433 10.5188 18.9178 11.1153 18.299C11.3899 18.014 11.7379 17.832 12.1396 17.8926C12.9382 18.013 13.9925 18.936 15.1085 20.4916C15.4962 21.032 15.8338 21.5687 16.0943 22.0081C13.5632 21.7607 11.1961 20.7457 10.7133 19.6095ZM16.5894 20.2993C15.5409 18.7245 13.9677 16.8329 12.3372 16.5866C11.5342 16.4653 10.7829 16.7405 10.1643 17.3822C9.68915 17.875 8.97082 18.8869 9.49755 20.1261C9.82503 20.8967 10.5647 21.55 11.5268 22.0649H6.40002V14.8107C6.40002 13.9616 7.09076 13.271 7.93969 13.271H16.5894V20.2993H16.5894ZM43.6001 35.1896C43.6001 36.0386 42.9094 36.7293 42.0604 36.7293H17.9103V23.9183C19.2677 24.8664 21.6761 26.9208 22.567 30.0395C22.6699 30.3998 23.0648 30.6038 23.4188 30.4818C23.7458 30.3691 23.932 30.0087 23.8372 29.6767C22.9794 26.6742 20.9452 24.5905 19.4205 23.386H43.6001V35.1896ZM18.4051 22.008C18.6631 21.573 18.9971 21.0418 19.3816 20.5048C20.501 18.9413 21.5587 18.0137 22.3596 17.8927C22.7616 17.8318 23.1097 18.0141 23.3844 18.299C23.981 18.918 23.8996 19.3434 23.7864 19.6096C23.3035 20.7457 20.9362 21.7607 18.4051 22.008ZM43.6001 22.065H22.9729C23.9348 21.55 24.6746 20.8967 25.0021 20.1262C25.5288 18.8869 24.8105 17.8751 24.3353 17.3823C23.7167 16.7404 22.9647 16.4655 22.1623 16.5867C20.532 16.8329 18.9586 18.7246 17.9102 20.2993V13.2712H42.0603C42.9093 13.2712 43.6 13.9618 43.6 14.8108V22.065H43.6001ZM46.065 22.5399L44.921 25.3639V20.4152L45.2161 20.5347C45.5972 20.6891 45.8955 20.9828 46.0557 21.3615C46.2161 21.7401 46.2194 22.1587 46.065 22.5399Z" fill="black"/>
<path d="M36.2643 33.4312V34.0647C36.2643 34.4295 36.56 34.7251 36.9247 34.7251C37.2896 34.7251 37.5851 34.4295 37.5851 34.0647V33.4493C38.0829 33.3438 38.424 33.1174 38.6425 32.9118C39.0736 32.5062 39.3309 31.894 39.3309 31.2741C39.3309 30.7665 39.1728 30.307 38.8736 29.9451C38.4726 29.4601 37.8428 29.1671 37.0018 29.0743C36.2178 28.9878 36.1007 28.5838 36.1007 28.3506C36.1007 28.2131 36.1405 27.5266 36.9246 27.5266C37.4297 27.5266 37.6481 27.8278 37.7021 27.9177C37.8012 28.1583 38.0377 28.3279 38.3141 28.3279C38.8117 28.3279 39.0988 27.8103 38.9083 27.3743C38.7511 27.0327 38.3182 26.5064 37.585 26.2971V25.6511C37.585 25.2864 37.2894 24.9907 36.9246 24.9907C36.5599 24.9907 36.2642 25.2864 36.2642 25.6511V26.2954C35.8146 26.4246 35.4395 26.6906 35.1763 27.0754C34.8084 27.613 34.7798 28.1875 34.7798 28.3507C34.7798 29.1845 35.3239 30.2182 36.857 30.3873C38.01 30.5146 38.01 31.0664 38.01 31.2742C38.01 31.4769 37.9384 31.7608 37.7373 31.9499C37.5459 32.1299 37.2494 32.2093 36.8562 32.1851C36.0228 32.1343 35.8338 31.6151 35.815 31.5562L35.8147 31.5562C35.7432 31.268 35.4835 31.0541 35.1731 31.0541C34.719 31.0541 34.3949 31.5206 34.5535 31.9467C34.6209 32.1581 34.9994 33.144 36.2643 33.4312Z" fill="black"/>
</svg>
