<svg width="49" height="50" viewBox="0 0 49 50" fill="none" xmlns="http://www.w3.org/2000/svg">
<path d="M38.7417 20.4959H37.2421V5.49932H20.7458V20.4959H16.2468V35.4926H12.4976V2.5H2V6.99899H7.99865V39.9915H12.9026C11.2814 41.7929 11.3784 44.5542 13.1219 46.2377C14.865 47.9208 17.6282 47.9208 19.3717 46.2377C21.1148 44.5542 21.2119 41.7929 19.591 39.9915H30.8985C29.2773 41.7929 29.3743 44.5542 31.1178 46.2377C32.861 47.9208 35.6241 47.9208 37.3676 46.2377C39.1108 44.5542 39.2078 41.7929 37.5869 39.9915H42.4909V35.4926H38.7417V20.4959ZM30.4936 6.99899V14.4973H27.4943V6.99899H30.4936ZM22.2454 6.99899H25.9946V15.997H31.9932V6.99899H35.7424V20.4959H22.2454V6.99899ZM17.7465 21.9956H37.2421V24.9949H17.7465V21.9956ZM17.7465 26.4946H37.2421V35.4926H17.7465V26.4946ZM3.49966 5.49932V3.99966H7.99865V5.49932H3.49966ZM9.49831 3.99966H10.998V26.4946H9.49831V3.99966ZM9.49831 27.9943H10.998V35.4926H9.49831V27.9943ZM19.2461 42.9909C19.2461 44.6472 17.9032 45.9902 16.2468 45.9902C14.5904 45.9902 13.2475 44.6472 13.2475 42.9909C13.2475 41.3345 14.5904 39.9915 16.2468 39.9915C17.9032 39.9915 19.2461 41.3345 19.2461 42.9909ZM37.2421 42.9909C37.2421 44.6472 35.8991 45.9902 34.2427 45.9902C32.5864 45.9902 31.2434 44.6472 31.2434 42.9909C31.2434 41.3345 32.5864 39.9915 34.2427 39.9915C35.8991 39.9915 37.2421 41.3345 37.2421 42.9909ZM40.9912 36.9922V38.4919H9.49831V36.9922H40.9912Z" fill="black"/>
<path d="M19.6068 44.99C19.6068 45.9102 18.8756 46.6563 17.9738 46.6563C17.072 46.6563 16.3408 45.9102 16.3408 44.99C16.3408 44.0698 17.072 43.3237 17.9738 43.3237C18.8756 43.3237 19.6068 44.0698 19.6068 44.99Z" fill="black"/>
<path d="M39.2025 44.99C39.2025 45.9102 38.4713 46.6563 37.5695 46.6563C36.6677 46.6563 35.9365 45.9102 35.9365 44.99C35.9365 44.0698 36.6677 43.3237 37.5695 43.3237C38.4713 43.3237 39.2025 44.0698 39.2025 44.99Z" fill="black"/>
<path d="M37.5695 33.3256H35.9365V34.9919H39.2025V30.8262H37.5695V33.3256Z" fill="black"/>
<path d="M26.1387 16.6631H27.7716V18.3294H26.1387V16.6631Z" fill="black"/>
</svg>
