<svg width="17" height="18" viewBox="0 0 17 18" fill="none" xmlns="http://www.w3.org/2000/svg">
<path d="M10.291 4.36696C10.9924 4.50354 11.637 4.84592 12.1424 5.35028C12.6477 5.85463 12.9907 6.49801 13.1276 7.19808M10.291 1.5C11.7483 1.66158 13.1072 2.31291 14.1446 3.34704C15.182 4.38118 15.8363 5.73665 16 7.19091M15.2819 12.9105V15.0607C15.2827 15.2603 15.2417 15.4579 15.1616 15.6408C15.0815 15.8237 14.964 15.9879 14.8166 16.1228C14.6692 16.2578 14.4952 16.3605 14.3058 16.4244C14.1163 16.4884 13.9156 16.5121 13.7164 16.4942C11.5067 16.2545 9.38404 15.5009 7.5191 14.2938C5.78402 13.1934 4.31297 11.7251 3.21043 9.99336C1.99681 8.12353 1.24154 5.99467 1.00583 3.77923C0.987883 3.58103 1.01148 3.38127 1.07513 3.19267C1.13877 3.00407 1.24106 2.83076 1.37549 2.68378C1.50992 2.5368 1.67353 2.41937 1.85592 2.33896C2.03831 2.25855 2.23548 2.21693 2.43487 2.21674H4.58921C4.93771 2.21332 5.27557 2.33649 5.53981 2.56331C5.80406 2.79012 5.97665 3.1051 6.02543 3.44953C6.11636 4.13765 6.28499 4.81329 6.52811 5.46357C6.62472 5.72011 6.64564 5.99891 6.58836 6.26695C6.53109 6.53498 6.39803 6.78101 6.20496 6.97589L5.29296 7.88614C6.31523 9.68053 7.8038 11.1663 9.60163 12.1866L10.5136 11.2763C10.7089 11.0836 10.9554 10.9508 11.2239 10.8936C11.4925 10.8365 11.7718 10.8574 12.0288 10.9538C12.6804 11.1964 13.3573 11.3648 14.0467 11.4555C14.3956 11.5046 14.7142 11.68 14.9419 11.9483C15.1696 12.2165 15.2906 12.559 15.2819 12.9105Z" stroke="#097B35" stroke-width="1.5" stroke-linecap="round" stroke-linejoin="round"/>
</svg>
