<svg width="20" height="20" viewBox="0 0 20 20" fill="none" xmlns="http://www.w3.org/2000/svg">
<path d="M13.791 5.96229C15.3586 5.96229 16.8619 6.59046 17.9704 7.70861C19.0788 8.82676 19.7015 10.3433 19.7015 11.9246V18.8806H15.7612V11.9246C15.7612 11.3975 15.5536 10.892 15.1842 10.5193C14.8147 10.1465 14.3136 9.93716 13.791 9.93716C13.2685 9.93716 12.7674 10.1465 12.3979 10.5193C12.0285 10.892 11.8209 11.3975 11.8209 11.9246V18.8806H7.8806V11.9246C7.8806 10.3433 8.5033 8.82676 9.61173 7.70861C10.7202 6.59046 12.2235 5.96229 13.791 5.96229Z" fill="#1D1D1B"/>
<path d="M3.9403 6.95601H0V18.8806H3.9403V6.95601Z" fill="#1D1D1B"/>
<path d="M1.97015 3.97486C3.05823 3.97486 3.9403 3.08506 3.9403 1.98743C3.9403 0.889803 3.05823 0 1.97015 0C0.882066 0 0 0.889803 0 1.98743C0 3.08506 0.882066 3.97486 1.97015 3.97486Z" fill="#1D1D1B"/>
</svg>
