<svg width="51" height="50" viewBox="0 0 51 50" fill="none" xmlns="http://www.w3.org/2000/svg">
<g clip-path="url(#clip0_344_5663)">
<path d="M37.3279 32.5156H32.8184V34.0188H37.3279V32.5156Z" fill="black"/>
<path d="M31.3152 32.5156H26.8057V34.0188H31.3152V32.5156Z" fill="black"/>
<path d="M25.3025 32.5156H20.793V34.0188H25.3025V32.5156Z" fill="black"/>
<path d="M44.8341 18.0875L29.9624 3.2135C29.5401 2.78716 28.9646 2.54759 28.3645 2.54834H28.3577C27.7615 2.54862 27.1905 2.78829 26.7726 3.2135L10.9967 18.9871H2.75477C1.50948 18.9871 0.5 19.9966 0.5 21.2419V42.2865C0.5 43.5317 1.50948 44.5412 2.75477 44.5412H13.8903L16.1331 46.7862C16.5554 47.2126 17.1308 47.4521 17.731 47.4514H17.737C18.3334 47.4512 18.9048 47.2115 19.3228 46.7862L21.5701 44.5412H38.8311C40.0764 44.5412 41.0859 43.5317 41.0859 42.2865V25.0254L44.8303 21.281C45.2577 20.8626 45.499 20.2901 45.5 19.6921C45.5023 19.0895 45.2623 18.5114 44.8341 18.0875ZM35.2731 10.652L26.938 18.9871H20.5555L32.0818 7.46074L35.2731 10.652ZM27.8369 4.27324C28.1227 3.9804 28.5919 3.97477 28.8849 4.26075C28.8891 4.26488 28.8933 4.26901 28.8974 4.27324L31.0191 6.39799L18.4292 18.9871H13.1222L27.8369 4.27324ZM18.2586 45.7265C18.1211 45.87 17.9312 45.9514 17.7325 45.952C17.531 45.9515 17.3383 45.8703 17.1973 45.7265L16.0166 44.5412H19.4446L18.2586 45.7265ZM39.5827 42.2865C39.5827 42.7015 39.2462 43.038 38.8311 43.038H2.75477C2.33971 43.038 2.00318 42.7015 2.00318 42.2865V31.7642H39.5827V42.2865ZM39.5827 30.261H2.00318V25.7515H39.5827V30.261ZM39.5827 24.2483H2.00318V21.2419C2.00318 20.8268 2.33971 20.4903 2.75477 20.4903H38.8311C39.2462 20.4903 39.5827 20.8268 39.5827 21.2419V24.2483ZM43.7713 20.2145L41.0859 22.8999V21.2419C41.0859 19.9966 40.0764 18.9871 38.8311 18.9871H29.0605L36.3328 11.7147L43.7683 19.1502C43.9127 19.2917 43.994 19.4854 43.9938 19.6876C43.9936 19.886 43.9134 20.076 43.7713 20.2145Z" fill="black"/>
<path d="M7.70831 41.5551C7.81804 41.4602 7.92083 41.3574 8.01571 41.2477C9.0096 42.4053 10.7173 42.6253 11.9721 41.7573C12.7819 41.191 13.268 40.2682 13.2768 39.28C13.2768 37.6197 11.9308 36.2737 10.2705 36.2737C10.1213 36.2716 9.97229 36.2842 9.82554 36.3112L9.806 36.3165C9.79849 36.3165 9.79097 36.3165 9.78421 36.3165C9.09566 36.4309 8.46949 36.7843 8.01571 37.3146C6.92966 36.0587 5.03105 35.9211 3.77524 37.0072C2.51933 38.0933 2.38169 39.9919 3.46784 41.2477C4.55389 42.5036 6.4524 42.6412 7.70831 41.5551ZM10.0803 37.7926C10.143 37.7807 10.2067 37.7754 10.2705 37.7768C11.1007 37.7768 11.7737 38.4498 11.7737 39.28C11.7729 39.598 11.6693 39.9073 11.4783 40.1616C11.4512 40.1985 11.4302 40.2368 11.3994 40.2751C11.3941 40.2811 11.3866 40.2849 11.3806 40.2909C11.0967 40.6044 10.6934 40.7833 10.2705 40.7832C9.44045 40.769 8.77895 40.0847 8.79314 39.2547C8.80573 38.5176 9.35082 37.8984 10.0803 37.7926ZM5.76094 37.7768C6.59117 37.7768 7.26412 38.4498 7.26412 39.28C7.26412 40.1102 6.59117 40.7832 5.76094 40.7832C4.93071 40.7832 4.25776 40.1102 4.25776 39.28C4.25776 38.4498 4.93071 37.7768 5.76094 37.7768Z" fill="black"/>
</g>
<defs>
<clipPath id="clip0_344_5663">
<rect width="50" height="50" fill="white" transform="translate(0.5)"/>
</clipPath>
</defs>
</svg>
