<svg width="22" height="20" viewBox="0 0 22 20" fill="none" xmlns="http://www.w3.org/2000/svg">
<g clip-path="url(#clip0_607_3298)">
<path d="M1.5 1.25H4.83333L7.06667 12.4083C7.14287 12.792 7.35159 13.1366 7.65629 13.3819C7.96099 13.6272 8.34225 13.7575 8.73333 13.75H16.8333C17.2244 13.7575 17.6057 13.6272 17.9104 13.3819C18.2151 13.1366 18.4238 12.792 18.5 12.4083L19.8333 5.41667H5.66667M9 17.9167C9 18.3769 8.6269 18.75 8.16667 18.75C7.70643 18.75 7.33333 18.3769 7.33333 17.9167C7.33333 17.4564 7.70643 17.0833 8.16667 17.0833C8.6269 17.0833 9 17.4564 9 17.9167ZM18.1667 17.9167C18.1667 18.3769 17.7936 18.75 17.3333 18.75C16.8731 18.75 16.5 18.3769 16.5 17.9167C16.5 17.4564 16.8731 17.0833 17.3333 17.0833C17.7936 17.0833 18.1667 17.4564 18.1667 17.9167Z" stroke="#1E1E1E" stroke-width="1.7472" stroke-linecap="round" stroke-linejoin="round"/>
</g>
<defs>
<clipPath id="clip0_607_3298">
<rect width="20.6897" height="19.5" fill="white" transform="translate(0.5 0.25)"/>
</clipPath>
</defs>
</svg>
