<svg width="20" height="20" viewBox="0 0 20 20" fill="none" xmlns="http://www.w3.org/2000/svg">
<path d="M19.7015 1.65105C18.8439 2.26909 17.8944 2.74179 16.8896 3.05095C16.3502 2.41734 15.6334 1.96826 14.8361 1.76443C14.0389 1.56061 13.1995 1.61188 12.4317 1.91131C11.6639 2.21074 11.0046 2.74389 10.543 3.43864C10.0814 4.13339 9.83973 4.95622 9.85075 5.79586V6.71082C8.27699 6.75252 6.71756 6.3959 5.31135 5.67274C3.90514 4.94958 2.69581 3.88232 1.79104 2.56602C1.79104 2.56602 -1.79104 10.8007 6.26866 14.4606C4.42435 15.7397 2.2273 16.3811 0 16.2905C8.0597 20.8654 17.9104 16.2905 17.9104 5.76841C17.9096 5.51354 17.8856 5.25931 17.8388 5.00898C18.7528 4.08806 19.3978 2.92534 19.7015 1.65105Z" fill="#1D1D1B"/>
</svg>
