<svg width="20" height="20" viewBox="0 0 20 20" fill="none" xmlns="http://www.w3.org/2000/svg">
<path d="M19.2891 4.6471C19.1827 4.2187 18.966 3.82619 18.661 3.5092C18.356 3.19222 17.9734 2.96199 17.5518 2.84177C16.0116 2.46265 9.85075 2.46265 9.85075 2.46265C9.85075 2.46265 3.68987 2.46265 2.14965 2.87787C1.72811 2.99809 1.3455 3.22832 1.04047 3.54531C0.735443 3.8623 0.518803 4.25481 0.412431 4.68321C0.130548 6.25886 -0.00733612 7.85726 0.000511894 9.45831C-0.00953598 11.0714 0.128357 12.682 0.412431 14.2695C0.529702 14.6846 0.751195 15.0622 1.05551 15.3658C1.35983 15.6694 1.73668 15.8887 2.14965 16.0026C3.68987 16.4179 9.85075 16.4179 9.85075 16.4179C9.85075 16.4179 16.0116 16.4179 17.5518 16.0026C17.9734 15.8824 18.356 15.6522 18.661 15.3352C18.966 15.0182 19.1827 14.6257 19.2891 14.1973C19.5688 12.6335 19.7066 11.0473 19.701 9.45831C19.711 7.84521 19.5731 6.23462 19.2891 4.6471Z" fill="#1D1D1B"/>
<path d="M7.83592 12.41L12.9849 9.45831L7.83592 6.50659V12.41Z" fill="white"/>
</svg>
